<?xml version="1.0" standalone="no"?>
<!DOCTYPE svg PUBLIC "-//W3C//DTD SVG 20010904//EN"
 "http://www.w3.org/TR/2001/REC-SVG-20010904/DTD/svg10.dtd">
<svg version="1.0" xmlns="http://www.w3.org/2000/svg"
 width="512.000000pt" height="512.000000pt" viewBox="0 0 512.000000 512.000000"
 preserveAspectRatio="xMidYMid meet">
<metadata>
Created by potrace 1.14, written by Peter Selinger 2001-2017
</metadata>
<g transform="translate(0.000000,512.000000) scale(0.100000,-0.100000)"
fill="#000000" stroke="none">
<path d="M2699 5032 c-46 -49 -91 -98 -99 -108 -69 -85 -145 -228 -179 -334
-22 -67 -23 -74 -41 -171 -13 -71 -16 -226 -6 -301 l7 -58 -63 33 c-284 150
-591 182 -871 92 -110 -36 -232 -96 -340 -167 -50 -34 -94 -65 -97 -68 -3 -3
-27 -23 -55 -45 -296 -234 -527 -552 -688 -945 -72 -176 -168 -497 -191 -640
-8 -49 -15 -90 -22 -122 -3 -15 -7 -42 -9 -60 -8 -66 -17 -133 -21 -153 -26
-133 -25 -672 1 -845 3 -19 10 -66 16 -105 25 -164 85 -365 147 -490 98 -199
221 -308 447 -398 267 -106 539 -146 970 -142 154 2 291 5 305 8 14 3 52 9 85
12 102 10 294 43 430 74 538 122 989 349 1295 652 221 218 378 445 454 657 27
76 28 82 50 202 14 73 14 261 1 325 -30 147 -54 220 -111 344 -24 52 -44 96
-44 98 0 2 15 1 33 -2 176 -29 398 2 584 83 123 53 222 121 337 232 l98 95
-288 289 c-159 159 -323 314 -364 345 -162 121 -393 201 -578 201 -65 0 -67
-4 53 91 167 132 368 241 574 309 68 23 135 44 149 46 14 3 58 12 97 20 38 8
99 17 135 21 36 3 72 7 80 8 8 2 43 4 78 4 l62 1 0 151 0 150 -72 -2 c-418 -9
-831 -147 -1187 -394 -61 -43 -214 -166 -228 -184 -10 -13 -13 -7 -14 34 -5
218 -79 433 -206 600 -47 61 -233 253 -541 558 l-88 88 -85 -89z"/>
</g>
</svg>
